# xmcd CD database file
#
# Track frame offsets:
#	150
#	14277
#	27794
#	42084
#	53900
#	67506
#	80617
#	92042
#	105530
#	116563
#	130953
#	145576
#	160752
#	175226
#	186637
#	198880
#	211953
#	224526
#	237807
#	252149
#	267467
#	281253
#	292018
#	306358
#	318820
#
# Disc length: 4437 seconds
#
# Revision: 0
# Processed by: cddbd v1.4PL0 Copyright (c) Steve Scherf et al.
# Submitted via: CDex 1.51
#
DISCID=62115319
DTITLE=Ella Fitzgerald - Ultimate Lounge
DYEAR=1900
DGENRE=Jazz
TTITLE0=Die Mir Bist Du Schoen
TTITLE1=Jim
TTITLE2=Stairway to the stars
TTITLE3=A tisket, a tasket
TTITLE4=My melancholy baby
TTITLE5=Cow cow boogie
TTITLE6=I can't believe that you're in love
TTITLE7=All I need is you
TTITLE8=The muffin man
TTITLE9=And her tears flowed like wine
TTITLE10=Somebody nobody loves
TTITLE11=He's my guy
TTITLE12=I fell in love with a dream
TTITLE13=Hello Ma! Done it again
TTITLE14=Cabin in the sky
TTITLE15=I got it bad (and that ain't good)
TTITLE16=After I say I'm sorry
TTITLE17=Who are you?
TTITLE18=Five O'clock whistle
TTITLE19=You don't know what love is
TTITLE20=The one I love (belongs to someone else)
TTITLE21=Goody, Goody
TTITLE22=I'm not complaining
TTITLE23=Can't help lovin' dat man
TTITLE24=Taking a chance on love
EXTD=
EXTT0=
EXTT1=
EXTT2=
EXTT3=
EXTT4=
EXTT5=
EXTT6=
EXTT7=
EXTT8=
EXTT9=
EXTT10=
EXTT11=
EXTT12=
EXTT13=
EXTT14=
EXTT15=
EXTT16=
EXTT17=
EXTT18=
EXTT19=
EXTT20=
EXTT21=
EXTT22=
EXTT23=
EXTT24=
PLAYORDER=
